<svg width="24" height="24" viewBox="0 0 24 24" xmlns="http://www.w3.org/2000/svg">
  <path fill="currentColor" fill-rule="evenodd" clip-rule="evenodd" d="M12 1.8a2.85 2.85 0 0 1 2.85 2.85c0 .43-.1.84-.27 1.2h.16c1.96 0 3.58.35 4.64.86.54.26 1 .59 1.28.99.3.41.4.9.22 1.37-.23.62-.96.96-1.75 1.15.28.73.43 1.54.43 2.39 0 3.5-2.48 6.33-5.91 6.94v.52c.86.36 1.45 1.15 1.45 2.08 0 .33-.27.6-.6.6a3.02 3.02 0 0 1-2.5-1.31 3.02 3.02 0 0 1-2.5 1.31.6.6 0 0 1-.6-.6c0-.93.59-1.72 1.45-2.08v-.52c-3.43-.61-5.91-3.44-5.91-6.94 0-.85.15-1.66.43-2.39-.79-.19-1.52-.53-1.75-1.15-.18-.47-.08-.96.22-1.37.28-.4.74-.73 1.28-.99 1.06-.51 2.68-.86 4.64-.86h.16a2.77 2.77 0 0 1-.27-1.2A2.85 2.85 0 0 1 12 1.8Zm0 1.35a1.5 1.5 0 0 0-1.5 1.5c0 .48.23.91.59 1.18h1.82c.36-.27.59-.7.59-1.18A1.5 1.5 0 0 0 12 3.15Zm0 7.1c-2.67 0-4.83 1.72-4.83 3.85 0 1.33.84 2.51 2.12 3.2.57.3 1.19-.21 1.19-.85 0-.29.14-.56.38-.72.24-.17.55-.18.8-.04l.34.18.34-.18c.25-.14.56-.13.8.04.24.16.38.43.38.72 0 .64.62 1.15 1.19.85 1.28-.69 2.12-1.87 2.12-3.2 0-2.13-2.16-3.85-4.83-3.85Z"/>
  <path fill="currentColor" d="M1.9 12.03c-.28-.14-.39-.48-.24-.76.54-1.03 1.57-1.75 2.78-1.91-.38.94-.59 1.97-.59 3.04 0 .43.03.84.1 1.24-.79-.23-1.5-.78-2.05-1.61Zm20.2 0c.28-.14.39-.48.24-.76-.54-1.03-1.57-1.75-2.78-1.91.38.94.59 1.97.59 3.04 0 .43-.03.84-.1 1.24.79-.23 1.5-.78 2.05-1.61Z"/>
  <path fill="currentColor" d="M9.35 13.02c.44 0 .8-.48.8-1.08 0-.59-.36-1.07-.8-1.07s-.8.48-.8 1.07c0 .6.36 1.08.8 1.08Zm5.3 0c.44 0 .8-.48.8-1.08 0-.59-.36-1.07-.8-1.07s-.8.48-.8 1.07c0 .6.36 1.08.8 1.08Zm-3.75 1.14a.55.55 0 0 1 .78.03c.18.2.3.28.42.28s.24-.08.42-.28a.55.55 0 0 1 .81.75c-.33.36-.72.63-1.23.63s-.9-.27-1.23-.63a.55.55 0 0 1 .03-.78Zm-1.55 3.13a.78.78 0 0 1 0-1.1l1.19-1.19a.78.78 0 0 1 1.1 1.1l-.64.64.64.64a.78.78 0 1 1-1.1 1.1l-1.19-1.19Zm5.3-1.1a.78.78 0 1 0-1.1-1.1l-1.19 1.19a.78.78 0 0 0 0 1.1l1.19 1.19a.78.78 0 0 0 1.1-1.1l-.64-.64.64-.64Z"/>
</svg>
